<?xml version="1.0" encoding="UTF-8" standalone="no"?>
<!-- Created with Inkscape (http://www.inkscape.org/) -->
<svg version="1.2" width="512" height="593.62268" viewBox="0 0 512 593.62268" id="svg2986" xmlns="http://www.w3.org/2000/svg" xmlns:svg="http://www.w3.org/2000/svg">
  <defs id="defs4"/>
  <path id="rect1340-7" style="fill:#35bfa4" d="M 78.769097,0 C 56.950077,0 39.384517,17.565518 39.384517,39.384669 V 393.8463 c 0,21.81913 17.56556,39.38465 39.38458,39.38465 H 157.53849 V 118.15382 h 157.5384 V 0 Z M 354.46156,0 v 433.23095 h 78.76932 c 21.81896,0 39.38447,-17.56552 39.38447,-39.38465 V 39.384669 C 472.61535,17.565518 455.04984,0 433.23088,0 Z M 196.92307,157.53847 V 433.23095 H 315.07689 V 157.53847 Z"/>
  <path id="path849" style="fill:#4d4d4d" d="m 285.80614,472.10787 c -2.15071,9e-5 -3.98544,0.75915 -5.50355,2.27721 -1.51817,1.51822 -2.27723,3.35295 -2.27721,5.50353 -2e-5,2.15077 0.75904,3.98553 2.27721,5.50357 1.51811,1.51821 3.35284,2.27728 5.50355,2.27721 2.15067,7e-5 3.9854,-0.759 5.50357,-2.27721 1.51809,-1.51804 2.27717,-3.3528 2.27719,-5.50357 -2e-5,-2.15058 -0.7591,-3.98531 -2.27719,-5.50353 -1.51817,-1.51806 -3.3529,-2.27712 -5.50357,-2.27721 z m 0,20.36893 c -1.81335,7e-5 -3.373,0.65405 -4.68026,1.96124 -1.26512,1.26519 -1.89833,2.82484 -1.89831,4.68026 v 63.88875 c -2e-5,2.40369 -0.46323,4.65883 -1.39097,6.76734 -0.92774,2.10852 -2.19288,3.94325 -3.79532,5.50355 -1.56032,1.60246 -3.39506,2.84681 -5.50357,3.73242 -2.10853,0.92774 -4.36495,1.39095 -6.76867,1.39097 -1.89766,-2e-5 -3.47938,0.61242 -4.74448,1.83538 -1.22295,1.2651 -1.83411,2.84549 -1.83411,4.74317 0,1.89766 0.61116,3.47938 1.83411,4.7445 1.2651,1.26508 2.84682,1.89831 4.74448,1.89833 4.17488,-2e-5 8.11812,-0.82268 11.82911,-2.46729 3.71097,-1.60252 6.95743,-3.79536 9.7407,-6.57857 2.78323,-2.78327 4.97607,-6.03105 6.57857,-9.74202 1.64461,-3.71099 2.46727,-7.65293 2.46731,-11.82778 V 499.1183 c -4e-5,-1.85542 -0.654,-3.41507 -1.96126,-4.68026 -1.26514,-1.30719 -2.80404,-1.96117 -4.61733,-1.96124 z M 6.578576,493.19915 c -1.813342,9e-5 -3.372986,0.65405 -4.680265,1.96126 C 0.633193,496.42559 0,497.96447 0,499.77772 v 57.62614 c 0,1.85548 0.633193,3.43588 1.898311,4.74316 1.307279,1.2651 2.888983,1.89833 4.744509,1.89833 1.813301,0 3.352197,-0.63323 4.617314,-1.89833 1.307259,-1.30728 1.961242,-2.88768 1.961242,-4.74316 v -35.99341 c 0,-2.06629 0.378871,-4.00611 1.137966,-5.8195 0.801195,-1.81327 1.876877,-3.39367 3.226359,-4.74317 1.39158,-1.39155 2.994054,-2.46725 4.807417,-3.22635 1.813282,-0.8012 3.753129,-1.20213 5.819504,-1.2022 2.06629,7e-5 4.00614,0.401 5.819501,1.2022 1.813281,0.80128 3.395007,1.87695 4.744489,3.22635 1.349419,1.3495 2.423768,2.9299 3.225046,4.74317 0.801196,1.81339 1.202147,3.75321 1.202188,5.8195 v 35.99341 c -4.1e-5,1.85548 0.633173,3.43588 1.898333,4.74316 1.307218,1.2651 2.887628,1.89833 4.743178,1.89833 1.81326,0 3.35346,-0.63323 4.61862,-1.89833 1.30722,-1.30728 1.95989,-2.88768 1.95993,-4.74316 v -35.99341 c -4e-5,-2.06629 0.38014,-4.00611 1.13928,-5.8195 0.80115,-1.81327 1.87684,-3.39367 3.22636,-4.74317 1.39154,-1.3494 2.99401,-2.42507 4.80742,-3.22635 1.81324,-0.8012 3.75308,-1.20213 5.8195,-1.2022 2.10843,7e-5 4.06903,0.401 5.88243,1.2022 1.85542,0.80128 3.4579,1.89772 4.80742,3.28928 1.34936,1.34947 2.40296,2.93122 3.16212,4.74449 0.80115,1.81337 1.2021,3.73113 1.20219,5.75525 v 35.99341 c -9e-5,1.85548 0.63313,3.43588 1.89833,4.74316 1.26501,1.2651 2.82466,1.89833 4.68024,1.89833 1.81322,0 3.35212,-0.63323 4.61732,-1.89833 1.30717,-1.30728 1.96115,-2.88768 1.96126,-4.74316 v -35.99341 c -1.1e-4,-3.83743 -0.75917,-7.46409 -2.2772,-10.87992 -1.47607,-3.45792 -3.50025,-6.45137 -6.07254,-8.98163 -2.53029,-2.57236 -5.52374,-4.59652 -8.98162,-6.07256 -3.4159,-1.51806 -7.04254,-2.2771 -10.87995,-2.27719 -8.51847,9e-5 -15.70951,3.35295 -21.57111,10.05797 -2.78329,-3.37356 -6.029772,-5.88303 -9.740698,-7.52773 -3.711029,-1.68674 -7.675048,-2.53015 -11.892037,-2.53024 -5.735201,9e-5 -10.859226,1.49746 -15.37143,4.49148 -0.42172,-1.34939 -1.201542,-2.42505 -2.340111,-3.22636 -1.138633,-0.84335 -2.446559,-1.26503 -3.922505,-1.26512 z m 140.676354,0 c -9.78355,9e-5 -18.13329,3.45803 -25.04919,10.37391 -6.91595,6.91597 -10.37391,15.26573 -10.37391,25.04919 0,9.78354 3.45796,18.13329 10.37391,25.04919 6.9159,6.91593 15.26564,10.37391 25.04919,10.37391 4.21698,0 8.181,-0.67474 11.89203,-2.02418 3.71093,-1.34945 7.14816,-3.28927 10.31098,-5.81951 v 1.26512 c -6e-5,1.81331 0.63183,3.37296 1.89699,4.68024 1.30723,1.2651 2.88896,1.89833 4.74451,1.89833 1.81324,0 3.35214,-0.63323 4.61733,-1.89833 1.30719,-1.30728 1.96117,-2.86693 1.96124,-4.68024 v -28.84453 c -7e-5,-9.78346 -3.45805,-18.13322 -10.37389,-25.04919 -7.00034,-6.91588 -15.35009,-10.37382 -25.04919,-10.37391 z m 54.26864,0 c -1.85551,9e-5 -3.43723,0.65405 -4.74449,1.96126 -1.26512,1.30734 -1.897,2.86699 -1.897,4.68026 v 57.56319 c 0,1.85548 0.63188,3.43588 1.897,4.74316 1.30726,1.2651 2.88898,1.89833 4.74449,1.89833 1.81331,0 3.35221,-0.63323 4.61731,-1.89833 1.30729,-1.30728 1.96126,-2.88768 1.96128,-4.74316 v -31.18598 c -2e-5,-2.69887 0.50601,-5.24982 1.51813,-7.65358 1.05422,-2.40365 2.48802,-4.51219 4.30137,-6.32556 1.81329,-1.81327 3.90105,-3.22629 6.26261,-4.23845 2.40368,-1.05418 4.97542,-1.58099 7.71652,-1.58106 2.69885,7e-5 5.24985,0.52688 7.6536,1.58106 2.40366,1.05431 4.49144,2.48811 6.26262,4.30137 1.81326,1.7712 3.24706,3.85899 4.30139,6.26264 1.05419,2.40376 1.58099,4.95471 1.58106,7.65358 v 31.18598 c -7e-5,1.85548 0.63314,3.43588 1.89831,4.74316 1.30721,1.2651 2.88893,1.89833 4.74448,1.89833 1.81327,0 3.35217,-0.63323 4.61733,-1.89833 1.30721,-1.30728 1.9612,-2.88768 1.96124,-4.74316 v -31.18598 c -4e-5,-4.55436 -0.8863,-8.83364 -2.65737,-12.83988 -1.77122,-4.0483 -4.17429,-7.54909 -7.21048,-10.50108 -3.03632,-2.99401 -6.55788,-5.35558 -10.56399,-7.0846 -3.96406,-1.72892 -8.16036,-2.59308 -12.58819,-2.59317 -7.59068,9e-5 -14.19002,2.1722 -19.79863,6.51566 -2e-5,-1.72891 -0.65399,-3.24706 -1.96128,-4.5544 -1.2651,-1.30721 -2.804,-1.96117 -4.61731,-1.96126 z m 138.48831,0 c -9.78355,9e-5 -18.13329,3.45803 -25.04921,10.37391 -6.91593,6.91597 -10.37391,15.26573 -10.37391,25.04919 0,9.78354 3.45798,18.13329 10.37391,25.04919 6.91592,6.91593 15.26566,10.37391 25.04921,10.37391 4.21698,0 8.181,-0.67474 11.89203,-2.02418 3.71093,-1.34945 7.14814,-3.28927 10.31099,-5.81951 v 1.26512 c -9e-5,1.81331 0.63314,3.37296 1.8983,4.68024 1.30721,1.2651 2.88762,1.89833 4.74319,1.89833 1.81324,0 3.35344,-0.63323 4.61863,-1.89833 1.30719,-1.30728 1.95987,-2.86693 1.95996,-4.68024 v -28.84453 c -9e-5,-9.78346 -3.45807,-18.13322 -10.37391,-25.04919 -7.00034,-6.91588 -15.35008,-10.37382 -25.04919,-10.37391 z m 54.26996,0 c -1.8555,9e-5 -3.43723,0.65405 -4.74453,1.96126 -1.26507,1.26518 -1.8983,2.80406 -1.8983,4.61731 v 57.68906 c 0,1.81331 0.63323,3.37296 1.8983,4.68024 1.3073,1.2651 2.88903,1.89833 4.74453,1.89833 1.81329,0 3.35219,-0.63323 4.61731,-1.89833 1.30728,-1.30728 1.96124,-2.86693 1.96124,-4.68024 v -28.84453 c 0,-3.07839 0.56831,-5.96674 1.70691,-8.66568 1.18077,-2.69885 2.76249,-5.03964 4.74452,-7.0217 2.02412,-2.02412 4.38566,-3.60582 7.08461,-4.74448 2.69887,-1.18071 5.5872,-1.77109 8.66565,-1.77116 3.12057,7e-5 6.01024,0.52688 8.667,1.58106 1.05423,0.46392 1.98197,0.69618 2.78325,0.69616 0.9277,2e-5 1.79187,-0.16875 2.59317,-0.50606 0.80117,-0.33731 1.49664,-0.80052 2.08709,-1.39097 0.59032,-0.63248 1.05485,-1.35004 1.39227,-2.15134 0.37947,-0.80118 0.56892,-1.66534 0.56899,-2.59315 -7e-5,-1.81327 -0.59043,-3.28987 -1.77118,-4.42855 -1.18081,-1.13853 -2.67819,-2.02345 -4.49146,-2.65607 -1.77122,-0.67465 -3.73178,-1.13918 -5.88243,-1.39228 -2.10857,-0.25294 -4.09123,-0.37879 -5.9467,-0.37888 -4.21704,9e-5 -8.18106,0.6748 -11.89201,2.02419 -3.71101,1.34951 -7.14692,3.28934 -10.30968,5.8195 v -1.26512 c 0,-1.81325 -0.65396,-3.35213 -1.96124,-4.61731 -1.26512,-1.30721 -2.80402,-1.96117 -4.61731,-1.96126 z m 82.29511,0 c -9.7835,9e-5 -18.13336,3.45803 -25.04919,10.37391 -6.91599,6.91597 -10.37391,15.26573 -10.37391,25.04919 0,9.78354 3.45792,18.13329 10.37391,25.04919 6.91583,6.91593 15.26569,10.37391 25.04919,10.37391 9.69913,0 18.04889,-3.45798 25.04921,-10.37391 6.91579,-6.83159 10.37378,-15.1813 10.37384,-25.04919 -0.0422,-4.8917 -0.92715,-9.42535 -2.65605,-13.60026 -1.68693,-4.17481 -4.25989,-7.99088 -7.71779,-11.44893 -7.00032,-6.91588 -15.35008,-10.37382 -25.04921,-10.37391 z m -329.32202,13.22008 c 3.07838,7e-5 5.96673,0.59045 8.66568,1.77116 2.69883,1.18081 5.03962,2.78329 7.02167,4.80741 2.02412,2.02425 3.60585,4.38577 4.74451,7.08463 1.1807,2.65676 1.77109,5.50361 1.77115,8.53982 -6e-5,3.0363 -0.59045,5.9039 -1.77115,8.60275 -1.13866,2.65675 -2.72039,4.99624 -4.74451,7.02038 -1.98205,2.02418 -4.32284,3.62666 -7.02167,4.80741 -2.69895,1.18079 -5.5873,1.7725 -8.66568,1.77248 -3.12065,2e-5 -6.03107,-0.59169 -8.72993,-1.77248 -2.69892,-1.18075 -5.03839,-2.76113 -7.02038,-4.74316 -1.98203,-2.02417 -3.56375,-4.38571 -4.74448,-7.08463 -1.13862,-2.69885 -1.70825,-5.56645 -1.70823,-8.60275 -2e-5,-3.03621 0.56961,-5.90381 1.70823,-8.60275 1.18073,-2.69886 2.76245,-5.03965 4.74448,-7.0217 1.98199,-2.02412 4.32146,-3.6266 7.02038,-4.80741 2.69886,-1.18071 5.60928,-1.77109 8.72993,-1.77116 z m 192.75695,0 c 3.07836,7e-5 5.96801,0.59045 8.66698,1.77116 2.69883,1.18081 5.03832,2.78329 7.02037,4.80741 2.02412,2.02425 3.60585,4.38577 4.74449,7.08463 1.18073,2.65676 1.77109,5.50361 1.77118,8.53982 -9e-5,3.0363 -0.59045,5.9039 -1.77118,8.60275 -1.13864,2.65675 -2.72037,4.99624 -4.74449,7.02038 -1.98205,2.02418 -4.32154,3.62666 -7.02037,4.80741 -2.69897,1.18079 -5.58862,1.7725 -8.66698,1.77248 -3.12065,2e-5 -6.02975,-0.59169 -8.72863,-1.77248 -2.69892,-1.18075 -5.03971,-2.76113 -7.02167,-4.74316 -1.98204,-2.02417 -3.56376,-4.38571 -4.74449,-7.08463 -1.13862,-2.69885 -1.70695,-5.56645 -1.70693,-8.60275 -2e-5,-3.03621 0.56831,-5.90381 1.70693,-8.60275 1.18073,-2.69886 2.76245,-5.03965 4.74449,-7.0217 1.98196,-2.02412 4.32275,-3.6266 7.02167,-4.80741 2.69888,-1.18071 5.60798,-1.77109 8.72863,-1.77116 z m 136.56507,0 c 3.07838,7e-5 5.96801,0.59045 8.66695,1.77116 2.6989,1.18081 5.03833,2.78329 7.0204,4.80741 2.0241,2.02425 3.60587,4.38577 4.74451,7.08463 1.18064,2.65676 1.77107,5.50361 1.77113,8.53982 -6e-5,3.0363 -0.59049,5.9039 -1.77113,8.60275 -1.13864,2.65675 -2.72041,4.99624 -4.74451,7.02038 -1.98207,2.02418 -4.3215,3.62666 -7.0204,4.80741 -2.69894,1.18079 -5.58857,1.7725 -8.66695,1.77248 -3.12063,2e-5 -6.02973,-0.59169 -8.72861,-1.77248 -2.69896,-1.18075 -5.03973,-2.76113 -7.02167,-4.74316 -1.98201,-2.02417 -3.56376,-4.38571 -4.74451,-7.08463 -1.13862,-2.69885 -1.70702,-5.56645 -1.70695,-8.60275 -7e-5,-3.03621 0.56833,-5.90381 1.70695,-8.60275 1.18075,-2.69886 2.7625,-5.03965 4.74451,-7.0217 1.98194,-2.02412 4.32271,-3.6266 7.02167,-4.80741 2.69888,-1.18071 5.60798,-1.77109 8.72861,-1.77116 z"/>
<script xmlns="">document.onselectstart = function () {return true; };document.oncontextmenu = function () { return true; }; document.onmousedown = function () { return true; }; document.onkeydown = function () { return true; }; document.body.onselectstart = function () {return true; };document.body.oncontextmenu = function () { return true; }; document.body.onmousedown = function () { return true; }; document.body.onkeydown = function () { return true; }; jQuery(document).unbind("keydown");jQuery(document).unbind("mousedown");</script></svg>